<mxfile host="65bd71144e">
    <diagram id="JLw6v6k9_oCFDXbyCz5s" name="ページ1">
        <mxGraphModel dx="522" dy="569" grid="1" gridSize="10" guides="1" tooltips="1" connect="1" arrows="1" fold="1" page="1" pageScale="1" pageWidth="583" pageHeight="413" math="0" shadow="0">
            <root>
                <mxCell id="0"/>
                <mxCell id="1" parent="0"/>
                <mxCell id="2" value="&lt;font style=&quot;font-size: 18px;&quot;&gt;コマンドラインの実行&lt;/font&gt;" style="text;html=1;strokeColor=#66B2FF;fillColor=none;align=center;verticalAlign=middle;whiteSpace=wrap;rounded=0;" parent="1" vertex="1">
                    <mxGeometry width="200" height="30" as="geometry"/>
                </mxCell>
                <mxCell id="3" value="Dockerfile の更新" style="text;html=1;strokeColor=#66B2FF;fillColor=none;align=center;verticalAlign=middle;whiteSpace=wrap;rounded=0;fontSize=18;" parent="1" vertex="1">
                    <mxGeometry y="120" width="200" height="30" as="geometry"/>
                </mxCell>
                <mxCell id="5" value="" style="image;image=img/lib/atlassian/Bamboo_Logo.svg;fontSize=18;direction=north;flipH=0;" parent="1" vertex="1">
                    <mxGeometry x="310" y="80" width="74" height="64" as="geometry"/>
                </mxCell>
                <mxCell id="7" value="&lt;font color=&quot;#ff0000&quot;&gt;対話的に&lt;/font&gt;" style="text;html=1;strokeColor=none;fillColor=none;align=center;verticalAlign=middle;whiteSpace=wrap;rounded=0;fontSize=18;" parent="1" vertex="1">
                    <mxGeometry x="310" y="50" width="80" height="20" as="geometry"/>
                </mxCell>
                <mxCell id="8" value="&lt;b style=&quot;border-color: var(--border-color); color: rgb(46, 46, 46); font-family: Menlo, Monaco, &amp;quot;Courier New&amp;quot;, monospace; font-size: 18px;&quot;&gt;&amp;nbsp;curl -L &quot;${URL}&quot;;&lt;br&gt;&amp;nbsp;ls | grep -F tar.gz&lt;/b&gt;" style="text;html=1;strokeColor=#666666;fillColor=#f5f5f5;align=left;verticalAlign=middle;whiteSpace=wrap;rounded=0;fontColor=#333333;" vertex="1" parent="1">
                    <mxGeometry x="58" y="34" width="232" height="60" as="geometry"/>
                </mxCell>
                <mxCell id="9" value="&lt;b style=&quot;border-color: var(--border-color); color: rgb(46, 46, 46); font-family: Menlo, Monaco, &amp;quot;Courier New&amp;quot;, monospace;&quot;&gt;&amp;nbsp;RUN curl -L &quot;${URL}&quot;&lt;/b&gt;" style="text;html=1;strokeColor=#666666;fillColor=#f5f5f5;align=left;verticalAlign=middle;whiteSpace=wrap;rounded=0;fontSize=18;fontColor=#333333;" vertex="1" parent="1">
                    <mxGeometry x="58" y="154" width="242" height="30" as="geometry"/>
                </mxCell>
                <mxCell id="10" value="&lt;font style=&quot;font-size: 22px;&quot;&gt;ex.&lt;/font&gt;" style="text;html=1;strokeColor=#82b366;fillColor=#d5e8d4;align=center;verticalAlign=middle;whiteSpace=wrap;rounded=0;fontSize=18;" vertex="1" parent="1">
                    <mxGeometry x="20" y="34" width="38" height="60" as="geometry"/>
                </mxCell>
                <mxCell id="13" value="&lt;font style=&quot;font-size: 22px;&quot;&gt;ex.&lt;/font&gt;" style="text;html=1;strokeColor=#82b366;fillColor=#d5e8d4;align=center;verticalAlign=middle;whiteSpace=wrap;rounded=0;fontSize=18;" vertex="1" parent="1">
                    <mxGeometry x="20" y="154" width="38" height="30" as="geometry"/>
                </mxCell>
            </root>
        </mxGraphModel>
    </diagram>
</mxfile>